<svg version="1.1" id="레이어_1" xmlns="http://www.w3.org/2000/svg" x="0" y="0" viewBox="0 0 40 30" xml:space="preserve"><style>.st0{fill:#fff}</style><path class="st0" d="M20 8.1c-.3-.2-.6-.1-.8.1l-3.9 3.2h-1.5c-.4 0-.8.4-.8.9v5.4c0 .5.4.9.8.9h1.5l3.9 3.2c.1.1.3.2.5.2.1 0 .3 0 .4-.1.3-.2.4-.5.4-.8V8.9c0-.3-.2-.6-.5-.8zm3.5 4.8c-.3-.3-.9-.3-1.2 0-.3.3-.3.9 0 1.2.2.2.3.5.3.9 0 .3-.1.6-.3.9-.3.3-.3.9 0 1.2.1.2.3.3.5.3s.4-.1.5-.3c.5-.6.9-1.3.9-2.1s-.2-1.5-.7-2.1z"/><path class="st0" d="M25.6 10.7c-.3-.3-.9-.3-1.2 0-.3.3-.3.9 0 1.2.8.8 1.2 1.9 1.2 3.1s-.4 2.3-1.2 3.1c-.3.3-.3.9 0 1.2.1.2.3.3.5.3s.4-.1.5-.3c1.1-1.2 1.6-2.7 1.6-4.2s-.3-3.3-1.4-4.4z"/></svg>